<?xml version="1.0" encoding="utf-8"?>
<!-- Generator: Adobe Illustrator 25.0.1, SVG Export Plug-In . SVG Version: 6.00 Build 0)  -->
<svg version="1.1" id="Layer_1" xmlns="http://www.w3.org/2000/svg" xmlns:xlink="http://www.w3.org/1999/xlink" x="0px" y="0px"
	 viewBox="0 0 200 200" style="enable-background:new 0 0 200 200;" xml:space="preserve">
<style type="text/css">
	.st0{fill-rule:evenodd;clip-rule:evenodd;fill:#D9D9D9;}
	.st1{fill:#D9D9D9;}
</style>
<g>
	<path class="st0" d="M45.9,143.3c2.3-2.5,4-5.4,3.9-8.5c-0.2-1.7-0.8-3.3-1.8-4.8c-1.6,3.8-3.8,7-6.5,9.9
		C42.9,141.1,44.4,142.1,45.9,143.3L45.9,143.3z"/>
	<path class="st0" d="M26.9,23.1c-3.4-0.6-6.8-0.7-9.4,0.9c-1.5,1.1-2.5,2.5-3.2,4.2c3.8-0.6,8.1-0.3,12,0.5
		C26.4,26.5,26.6,24.6,26.9,23.1L26.9,23.1z"/>
	<path class="st0" d="M72,77.8c-1.2-3-2.8-6.1-5.4-7.5c-1.7-0.8-3.5-1-5.3-0.6c2.5,3.1,4.2,6.6,5.4,10.3
		C68.5,78.9,70.2,78.3,72,77.8L72,77.8z"/>
	<path class="st0" d="M62.1,54.1c3.6-0.1,7.2,0,10.3,1.1l3.7,1.3c3.2,0.8,4.1-0.4,5.3-3.2l4.9-10.2c-0.8,0.3-1.6,0.4-2.4,0.6
		c-5.1,0.9-10.2-0.4-15.2-2.5c-1.4-0.5-2.6-1.1-3.8-1.7C65.3,44.7,64.4,49.7,62.1,54.1L62.1,54.1z"/>
	<path class="st0" d="M83.5,138.3c-0.6-0.6-1.2-1-1.5-1.6c-4.1-4.9-5.6-11.5-5.8-18.2c-4.5,2.7-9,4.5-14.2,5c1.9,2.9,3.3,6,4.2,9.3
		l0.6,3.9c0.5,3.1,2.5,3.1,5.5,2.9L83.5,138.3L83.5,138.3z"/>
	<path class="st1" d="M81,106.8c0.8,17.6-0.5,33.3,22.9,31.1c-3.9-0.6-8.3-2.6-9.8-6.5c-0.4-1.3-0.8-3.6-1.1-6.5l-6.4-69.1
		c-2.3,5.2-6.2,7.9-12.2,6.1l-3.7-1.3c-2.8-0.8-6-1.2-9.5-0.9c-8.8,0.8-15.7,4.2-20.5,10c-11.2,13.7-5.9,38,8.1,45.7
		C60.5,121.5,73.1,116.2,81,106.8L81,106.8z M78.7,81.9c-5.6,0.5-10.8,2.8-15.4,6.8c-1-8.5-4.2-15.3-9.9-19.9
		c-0.6-0.6-1.2-1-2.1-1.4C66.6,58.9,76.6,66.8,78.7,81.9L78.7,81.9z M47.7,75.7L47.7,75.7c0.3,0.9,1.1,1.9,1.4,3
		c1.4,3.5,2.3,7.1,2.7,11.1c0.4,4,0.3,8.1-0.5,11.8c-0.2,0.7-0.4,1.4-0.3,1.8c-0.3-0.6-0.6-1.6-1.1-2.3c-1.4-3.5-2.3-7.5-2.7-11.5
		c-0.4-3.9-0.2-7.7,0.6-11.4C46.9,77.3,47.2,76.4,47.7,75.7L47.7,75.7z M79.4,89.6c-0.4,1-0.7,1.8-1.1,2.5c-1.3,3.1-3.6,5.7-5.9,8.5
		c-2.5,2.7-5.4,5.1-8.6,6.9c-0.8,0.5-1.3,0.8-2.1,1.1c0.2-0.7,0.7-1.4,0.9-2.1c1.7-3.1,3.5-6.3,6.1-8.9c2.5-2.7,5.2-4.8,8-6.7
		C77.7,90.7,78.4,90.3,79.4,89.6L79.4,89.6L79.4,89.6L79.4,89.6z"/>
	<path class="st1" d="M57.3,29.7c16.1,8,29.3,17,39.3-3.9c-2.5,2.9-6.7,5.9-10.6,5c-1.4-0.3-3.5-1-6.3-2.4L15.2-0.4
		c3.2,4.7,4,9.1-0.8,13.2l-2.9,2.6c-2.1,1.9-4.1,4.4-5.6,7.8c-3.8,7.8-4.2,15.4-1.5,22.3C10.9,61.6,35.2,69.3,48.9,61
		C60.1,54.3,61.6,41,57.3,29.7L57.3,29.7z M34.1,19.4c-2.3,4.9-2.9,10.4-1.8,16.7c-8-3.3-15.7-3.9-22.7-1.5
		c-0.8,0.3-1.6,0.6-2.4,0.9C7.6,18,19.7,13.7,34.1,19.4L34.1,19.4z M12.7,42.6L12.7,42.6c1.1,0.2,2.3,0.2,3.4,0.4
		c3.7,0.6,7.4,1.6,11.1,3.3c3.8,1.7,7.3,3.9,10.1,6.5c0.5,0.4,1,0.9,1.5,1.5c-0.9-0.2-1.6-0.1-2.5-0.2c-3.9-0.6-7.9-1.6-11.6-3.2
		c-3.8-1.7-7.1-3.7-9.8-6.1C14.2,43.8,13.5,43.2,12.7,42.6L12.7,42.6z M41.3,22.5c0.6,0.6,1.3,1.5,1.8,2.3c1.9,2.8,3.3,5.8,4.5,9.3
		s1.8,7.1,1.8,10.5c0.1,0.7-0.1,1.6,0,2.3c-0.6-0.6-1-1.3-1.3-1.9c-1.9-2.8-3.7-6-4.7-9.6c-1.2-3.3-1.8-6.9-1.8-10
		C41.3,24.6,41.4,23.5,41.3,22.5L41.3,22.5L41.3,22.5L41.3,22.5z"/>
	<path class="st1" d="M24.7,165.7c-15.2,9.5-29.8,16.4-16.1,35.3c-1.5-3.8-1.7-8.5,1.1-11.7c1-1,2.5-2.5,5.2-4.1L73,144.8
		c-5.8,0.5-10.1-1.4-11.3-7.3l-0.6-3.9c-0.5-2.9-1.9-5.8-4.2-8.7c-5.1-7-11.6-11.2-18.9-12.3c-17.4-2.4-36.4,14.2-36.3,29.9
		C1.6,155.8,12.5,163.7,24.7,165.7L24.7,165.7z M45.6,151c-3.2-4.4-8-7.9-14-9.8c7-5.2,11.4-11.2,12.7-18.3c0.2-0.7,0.3-1.7,0.3-2.3
		C59.9,129.3,57.7,141.8,45.6,151L45.6,151z M35.6,121.7L35.6,121.7c-0.8,1-1.2,1.7-2,2.6c-2.2,2.9-5.3,5.5-8.5,7.8
		c-3.4,2.3-7.1,4.3-10.8,5.3c-0.8,0.3-1.3,0.4-1.9,0.6c0.4-0.7,1-1.4,1.4-1.9c2.4-3.2,5.3-5.8,8.7-8.2c3.4-2.3,6.8-4,10.3-5.3
		C33.7,122,34.8,121.9,35.6,121.7L35.6,121.7z M38.8,155.7c-0.9,0.1-2,0.2-3.1,0.3c-3.3,0.3-7,0-10.3-0.8c-3.7-0.7-7.2-2-10.3-3.8
		c-0.5-0.4-1.4-0.8-2.1-1.2c0.9-0.1,1.6-0.1,2.2-0.2c3.6-0.3,7.2,0,10.9,0.7s6.9,1.8,9.8,3.4C37.2,154.8,38.1,155.1,38.8,155.7
		L38.8,155.7L38.8,155.7L38.8,155.7z"/>
</g>
<path class="st0" d="M-47.6,78.5l13.7-7.7l12.1,21.7L-45.9,106l-6.9-12.4C-56,88.1-53.4,81.7-47.6,78.5L-47.6,78.5z M-23.6,65
	l13.7-7.7c5.6-3.1,12.8-1.7,15.7,3.5l6.9,12.4l-24.2,13.5L-23.6,65L-23.6,65z M17.8,82.4l6.9,12.4c2.9,5.2,0.3,12-5.2,15.2
	l-13.7,7.7L-6.4,95.9L17.8,82.4L17.8,82.4z M-4.7,123.4l-13.7,7.7c-5.6,3.1-12.8,1.7-15.7-3.5l-6.9-12.4l24.2-13.5L-4.7,123.4
	L-4.7,123.4z"/>
</svg>
