<?xml version="1.0" encoding="utf-8"?>
<!-- Generator: Adobe Illustrator 25.0.1, SVG Export Plug-In . SVG Version: 6.00 Build 0)  -->
<svg version="1.1" id="Layer_1" xmlns="http://www.w3.org/2000/svg" xmlns:xlink="http://www.w3.org/1999/xlink" x="0px" y="0px"
	 viewBox="0 0 200 200" style="enable-background:new 0 0 200 200;" xml:space="preserve">
<style type="text/css">
	.st0{fill-rule:evenodd;clip-rule:evenodd;fill:#217D45;}
	.st1{fill:#217D45;}
</style>
<g>
	<path class="st0" d="M148.9,158.5c2-1.7,3.6-3.7,3.8-6c0-1.3-0.4-2.5-1.1-3.7c-1.6,2.7-3.6,4.9-6,6.9
		C146.7,156.7,147.8,157.5,148.9,158.5L148.9,158.5z"/>
	<path class="st0" d="M91,161.7c2.7,0.7,5.4,1,7.6,0c1.3-0.7,2.2-1.7,2.9-2.9c-3.3,0.2-6.5-0.3-9.6-1.2
		C91.7,159.2,91.4,160.5,91,161.7L91,161.7z"/>
	<path class="st0" d="M58.9,118.1c0.7,2.3,1.8,4.7,3.8,5.9c1.3,0.7,2.7,1,4.2,0.8c-1.8-2.5-2.9-5.2-3.6-8
		C61.8,117.5,60.4,117.8,58.9,118.1L58.9,118.1z"/>
	<path class="st0" d="M84.7,71.3c-2,1.7-3.6,3.7-3.8,6c0,1.3,0.4,2.5,1.1,3.7c1.6-2.7,3.6-4.9,6-6.9C87,73.2,85.9,72.4,84.7,71.3
		L84.7,71.3z"/>
	<path class="st0" d="M142.7,68.2c-2.7-0.7-5.4-1-7.6,0c-1.3,0.7-2.2,1.7-2.9,2.9c3.1-0.2,6.5,0.3,9.6,1.2
		C142,70.7,142.3,69.3,142.7,68.2L142.7,68.2z"/>
	<path class="st0" d="M174.8,111.8c-0.7-2.3-1.8-4.7-3.8-5.9c-1.3-0.7-2.7-1-4.2-0.8c1.8,2.5,2.9,5.2,3.6,8
		C171.9,112.4,173.3,112.1,174.8,111.8L174.8,111.8z"/>
	<path class="st0" d="M168.6,93.6c2.9,0.2,5.8,0.5,8.2,1.5l2.9,1.2c2.5,0.8,3.3,0,4.5-2l4.7-7.2c-0.7,0.2-1.3,0.2-2,0.3
		c-4.2,0.3-8.2-1-12-2.9c-1.1-0.5-2-1-2.9-1.5C171.9,86.9,170.8,90.5,168.6,93.6L168.6,93.6z"/>
	<path class="st0" d="M122.2,63.8c1.6-2.2,3.3-4.2,5.8-5.7l2.5-1.7c2-1.3,1.6-2.7,0.4-4.5l-4.7-7.2c-0.2,0.5-0.4,1-0.7,1.7
		c-2.2,4.2-6.9,7.2-11.6,9.6c2.9,1.7,5.6,3.9,7.6,6.7C121.7,63,122,63.5,122.2,63.8L122.2,63.8z"/>
	<path class="st0" d="M70.5,85.1c-1.3-2.2-2.2-4.7-2.7-7.2L67.6,75c-0.2-2.3-1.8-2.5-4.2-2.5h-9.1c0.4,0.5,0.9,0.8,1.1,1.3
		c2.9,3.9,3.6,8.9,3.3,13.9C62.4,86.1,66.5,85.1,70.5,85.1L70.5,85.1z"/>
	<path class="st0" d="M65.1,136.2c-2.9-0.2-5.8-0.5-8.2-1.5l-2.9-1.2c-2.5-0.8-3.3,0-4.5,2l-4.7,7.2c0.7-0.2,1.3-0.2,1.8-0.3
		c4.2-0.3,8.2,1,12,2.9c1.1,0.5,2,1,2.9,1.5C61.8,142.9,62.9,139.4,65.1,136.2L65.1,136.2z"/>
	<path class="st0" d="M179.5,157.4c-0.4-0.5-0.9-0.8-1.1-1.3c-2.9-3.9-3.6-8.9-3.3-13.9c-3.8,1.7-7.6,2.7-11.8,2.7
		c1.3,2.3,2.2,4.7,2.7,7.2l0.2,2.9c0.2,2.3,1.8,2.5,4.2,2.5L179.5,157.4L179.5,157.4z"/>
	<path class="st0" d="M111.5,166.1c-1.6,2.2-3.3,4.2-5.8,5.7l-2.5,1.7c-2,1.3-1.6,2.7-0.4,4.5l4.7,7.2c0.2-0.5,0.4-1,0.7-1.5
		c2.2-4.2,6.9-7.2,11.6-9.6c-2.9-1.7-5.6-4-7.6-6.7C111.9,166.9,111.7,166.4,111.5,166.1L111.5,166.1z"/>
	<path class="st1" d="M179.9,133.9c-0.7,13.1-2.9,24.6,16.1,24.6c-3.1-0.7-6.5-2.5-7.4-5.5c-0.2-1-0.4-2.7-0.4-4.9V96.5
		c-2.2,3.7-5.6,5.4-10.3,3.7L175,99c-2.2-0.8-4.7-1.3-7.6-1.3c-7.1,0-12.9,2-17.2,6c-10,9.4-7.6,27.7,3.1,34.4
		C162.3,143.4,172.8,140.3,179.9,133.9L179.9,133.9z M179.9,115.3c-4.5,0-8.9,1.3-12.9,4c-0.2-6.4-2.2-11.6-6.5-15.4
		c-0.4-0.5-0.9-0.8-1.6-1.2C171.9,97.5,179.3,104,179.9,115.3L179.9,115.3z M155.4,108.6L155.4,108.6c0.2,0.7,0.7,1.5,0.9,2.3
		c0.9,2.7,1.3,5.4,1.3,8.4s-0.4,6-1.3,8.7c-0.2,0.5-0.4,1-0.4,1.3c-0.2-0.5-0.4-1.2-0.7-1.8c-0.9-2.7-1.3-5.7-1.3-8.7
		c0-2.9,0.4-5.7,1.3-8.4C154.7,109.7,155,109.1,155.4,108.6L155.4,108.6z M179.9,121.1c-0.4,0.7-0.7,1.3-1.1,1.8
		c-1.3,2.2-3.3,4-5.4,5.9c-2.2,1.8-4.7,3.4-7.4,4.5c-0.7,0.3-1.1,0.5-1.8,0.7c0.2-0.5,0.7-1,0.9-1.5c1.6-2.2,3.3-4.4,5.6-6.2
		c2.2-1.8,4.5-3.2,6.9-4.4C178.4,121.8,179,121.5,179.9,121.1L179.9,121.1L179.9,121.1L179.9,121.1z"/>
	<path class="st1" d="M166.6,75.2c12.3,7,22.3,14.6,31.9-0.2c-2.2,2-5.8,3.9-8.9,3c-1.1-0.3-2.7-1-4.9-2.2L135,50
		c2.2,3.7,2.5,7-1.6,9.7l-2.5,1.7c-1.8,1.3-3.6,3-5.1,5.4c-3.6,5.5-4.5,11.1-2.9,16.4c4,12.4,23,19.8,34.6,14.6
		C167,93.6,169.2,83.9,166.6,75.2L166.6,75.2z M148.7,66c-2.2,3.5-3.1,7.5-2.7,12.2c-6.2-3-12.3-4-18.1-2.7c-0.7,0.2-1.3,0.3-2,0.5
		C127.5,63.1,137.6,60.8,148.7,66L148.7,66z M129.8,81.7L129.8,81.7c0.9,0.2,1.8,0.3,2.7,0.5c2.9,0.7,5.8,1.7,8.7,3.2
		s5.6,3.4,7.6,5.5c0.4,0.3,0.7,0.7,1.1,1.2c-0.7-0.2-1.3-0.2-2-0.3c-3.1-0.7-6.2-1.7-9.1-3.2c-2.9-1.5-5.4-3.2-7.4-5.2
		C130.9,82.7,130.4,82.2,129.8,81.7L129.8,81.7z M154.3,68.8c0.4,0.5,0.9,1.2,1.3,1.8c1.3,2.2,2.2,4.5,2.9,7.2s0.9,5.4,0.7,7.9
		c0,0.5-0.2,1.2-0.2,1.7c-0.4-0.5-0.7-1-0.9-1.5c-1.3-2.2-2.5-4.7-3.1-7.4c-0.7-2.5-0.9-5.2-0.7-7.5
		C154.1,70.3,154.3,69.5,154.3,68.8L154.3,68.8L154.3,68.8L154.3,68.8z"/>
	<path class="st1" d="M103.5,56.3c12.9-6,25.2-10.1,15.6-25c0.9,2.9,0.7,6.4-1.8,8.6c-0.9,0.7-2.2,1.7-4.5,2.7l-49.5,26
		c4.7,0,8,1.7,8.5,6.2l0.2,2.9c0.2,2.2,1.1,4.4,2.7,6.7c3.6,5.5,8.5,9.1,14.3,10.4c13.8,3,30.3-8,31.4-19.6
		C121.3,65.1,113.1,58.4,103.5,56.3L103.5,56.3z M85.6,65.6c2.2,3.5,5.8,6.4,10.5,8.2c-6,3.4-10,7.5-11.6,12.7
		c-0.2,0.5-0.4,1.2-0.4,1.7C72.5,80.7,75.2,71.7,85.6,65.6L85.6,65.6z M91.4,88.1L91.4,88.1c0.7-0.7,1.1-1.2,1.8-1.8
		c2-2,4.7-3.7,7.4-5.2c2.9-1.5,6-2.7,9.1-3.2c0.7-0.2,1.1-0.2,1.6-0.3c-0.4,0.5-0.9,1-1.3,1.3c-2.2,2.2-4.7,3.9-7.6,5.5
		c-2.9,1.5-5.8,2.5-8.7,3.2C93,87.9,92.1,87.9,91.4,88.1L91.4,88.1z M91.4,62.6c0.7,0,1.6,0,2.5,0c2.7,0,5.6,0.5,8.2,1.3
		c2.9,0.8,5.6,2,8,3.5c0.4,0.3,1.1,0.7,1.6,1c-0.7,0-1.3,0-1.8,0c-2.9,0-5.8-0.5-8.7-1.3c-2.9-0.8-5.4-1.8-7.6-3.2
		C92.5,63.5,91.9,63.1,91.4,62.6L91.4,62.6L91.4,62.6L91.4,62.6z"/>
	<path class="st1" d="M53.7,96.2c0.7-13.1,2.9-24.6-16.1-24.6c3.1,0.7,6.5,2.5,7.4,5.5c0.2,1,0.4,2.7,0.4,4.9v51.6
		c2.2-3.7,5.6-5.4,10.3-3.7l2.9,1.2c2.2,0.8,4.7,1.3,7.6,1.3c7.1,0,12.9-2,17.2-6c10-9.4,7.6-27.7-3.1-34.4
		C71.4,86.4,60.9,89.6,53.7,96.2L53.7,96.2z M53.7,114.6c4.5,0,8.9-1.3,12.9-4c0.2,6.4,2.2,11.6,6.5,15.4c0.4,0.5,0.9,0.8,1.6,1.2
		C61.8,132.4,54.4,125.8,53.7,114.6L53.7,114.6z M78.5,121.3L78.5,121.3c-0.2-0.7-0.7-1.5-0.9-2.3c-0.9-2.7-1.3-5.4-1.3-8.4
		s0.4-6,1.3-8.7c0.2-0.5,0.4-1,0.4-1.3c0.2,0.5,0.4,1.2,0.7,1.8c0.9,2.7,1.3,5.7,1.3,8.7c0,2.9-0.4,5.7-1.3,8.4
		C78.9,120.1,78.7,120.8,78.5,121.3L78.5,121.3z M53.7,108.7c0.4-0.7,0.7-1.3,1.1-1.8c1.3-2.2,3.3-4,5.4-5.9
		c2.2-1.8,4.7-3.4,7.4-4.5c0.7-0.3,1.1-0.5,1.8-0.7c-0.2,0.5-0.7,1-0.9,1.5c-1.6,2.2-3.3,4.4-5.6,6.2c-2.2,1.8-4.5,3.2-6.9,4.4
		C55.3,108.1,54.6,108.4,53.7,108.7L53.7,108.7L53.7,108.7L53.7,108.7z"/>
	<path class="st1" d="M67.1,154.7c-12.3-7-22.3-14.6-31.9,0.2c2.2-2,5.8-3.9,8.9-3c1.1,0.3,2.7,1,4.9,2.2l49.7,25.8
		c-2.2-3.7-2.5-7,1.6-9.7l2.5-1.7c1.8-1.3,3.6-3,5.1-5.4c3.6-5.5,4.5-11.1,2.9-16.4c-4-12.4-23-19.8-34.6-14.6
		C66.7,136.2,64.5,146,67.1,154.7L67.1,154.7z M85,163.9c2.5-3.5,3.1-7.5,2.7-12.2c6.2,3,12.3,4,18.1,2.7c0.7-0.2,1.3-0.3,2-0.5
		C106.1,166.7,96.1,169.1,85,163.9L85,163.9z M103.9,148.1L103.9,148.1c-0.9-0.2-1.8-0.3-2.7-0.5c-2.9-0.7-5.8-1.7-8.7-3.2
		c-2.9-1.5-5.6-3.4-7.6-5.5c-0.4-0.3-0.7-0.7-1.1-1.2c0.7,0.2,1.3,0.2,2,0.3c3.1,0.7,6.2,1.7,9.1,3.2s5.4,3.2,7.4,5.2
		C102.8,147.1,103.2,147.6,103.9,148.1L103.9,148.1z M79.4,161c-0.4-0.7-0.9-1.2-1.3-1.8c-1.3-2.2-2.2-4.5-2.9-7.2s-0.9-5.4-0.7-7.9
		c0-0.5,0.2-1.2,0.2-1.7c0.4,0.5,0.7,1,0.9,1.5c1.3,2.2,2.5,4.7,3.1,7.4c0.7,2.5,0.9,5.2,0.7,7.5C79.6,159.5,79.4,160.4,79.4,161
		L79.4,161L79.4,161L79.4,161z"/>
	<path class="st1" d="M130.2,173.6c-12.9,6-25.2,10.1-15.6,25c-0.9-2.9-0.7-6.4,1.8-8.6c0.9-0.7,2.2-1.7,4.5-2.7l49.7-25.8
		c-4.7,0-8-1.7-8.5-6.2l-0.2-2.9c-0.2-2.2-1.1-4.4-2.7-6.7c-3.6-5.5-8.5-9.1-14.3-10.4c-13.8-3-30.3,8-31.4,19.6
		C112.4,164.7,120.6,171.3,130.2,173.6L130.2,173.6z M148.1,164.2c-2.2-3.5-5.8-6.4-10.5-8.2c6-3.4,10-7.5,11.6-12.7
		c0.2-0.5,0.4-1.2,0.4-1.7C161.2,149.1,158.5,158.2,148.1,164.2L148.1,164.2z M142.3,141.8L142.3,141.8c-0.7,0.7-1.1,1.2-1.8,1.8
		c-2,2-4.7,3.7-7.4,5.2c-2.9,1.5-6,2.7-9.1,3.2c-0.7,0.2-1.1,0.2-1.6,0.3c0.4-0.5,0.9-1,1.3-1.3c2.2-2.2,4.7-3.9,7.6-5.5
		c2.9-1.5,5.8-2.5,8.7-3.2C140.7,141.9,141.6,141.9,142.3,141.8L142.3,141.8z M142.3,167.2c-0.7,0-1.6,0-2.5,0
		c-2.7,0-5.6-0.5-8.2-1.3c-2.9-0.8-5.6-2-8-3.5c-0.4-0.3-1.1-0.7-1.6-1c0.7,0,1.3,0,1.8,0c2.9,0,5.8,0.5,8.7,1.3s5.4,1.8,7.6,3.2
		C141.1,166.4,141.8,166.7,142.3,167.2L142.3,167.2L142.3,167.2L142.3,167.2z"/>
	<path class="st0" d="M106.4,100.4h7.6v12.1h-13.4v-6.9C100.6,102.5,103.2,100.4,106.4,100.4L106.4,100.4z M119.7,100.4h7.6
		c3.1,0,5.8,2.3,5.8,5.2v6.9h-13.4L119.7,100.4L119.7,100.4z M133.1,117.6v6.9c0,2.9-2.7,5.2-5.8,5.2h-7.6v-12.1H133.1L133.1,117.6z
		 M113.9,129.7h-7.6c-3.1,0-5.8-2.3-5.8-5.2v-6.9h13.4V129.7L113.9,129.7z"/>
</g>
</svg>
